<mxfile host="app.diagrams.net" modified="2023-03-17T09:58:57.692Z" agent="5.0 (Windows NT 10.0; Win64; x64) AppleWebKit/537.36 (KHTML, like Gecko) Chrome/111.0.0.0 Safari/537.36 Edg/111.0.1661.41" etag="B6BNA3hORJTjklMmXnbB" version="21.0.6" type="github">
  <diagram name="第 1 页" id="YQxbBs0BbiNEOquYL5x5">
    <mxGraphModel dx="1050" dy="587" grid="1" gridSize="10" guides="1" tooltips="1" connect="1" arrows="1" fold="1" page="1" pageScale="1" pageWidth="827" pageHeight="1169" math="0" shadow="0">
      <root>
        <mxCell id="0" />
        <mxCell id="1" parent="0" />
        <mxCell id="z6qCDHoe-iHTmkbMnSen-1" value="" style="rounded=1;whiteSpace=wrap;html=1;fillColor=#dae8fc;strokeColor=#6c8ebf;strokeWidth=0;" vertex="1" parent="1">
          <mxGeometry x="111" y="380" width="480" height="310" as="geometry" />
        </mxCell>
        <mxCell id="z6qCDHoe-iHTmkbMnSen-2" value="" style="endArrow=classic;html=1;rounded=0;" edge="1" parent="z6qCDHoe-iHTmkbMnSen-1">
          <mxGeometry width="50" height="50" relative="1" as="geometry">
            <mxPoint x="81.38" y="270" as="sourcePoint" />
            <mxPoint x="81.005" y="60" as="targetPoint" />
          </mxGeometry>
        </mxCell>
        <mxCell id="z6qCDHoe-iHTmkbMnSen-3" value="" style="endArrow=classic;html=1;rounded=0;startArrow=none;" edge="1" parent="z6qCDHoe-iHTmkbMnSen-1" source="z6qCDHoe-iHTmkbMnSen-5">
          <mxGeometry width="50" height="50" relative="1" as="geometry">
            <mxPoint x="187.5" y="270" as="sourcePoint" />
            <mxPoint x="187.125" y="60" as="targetPoint" />
          </mxGeometry>
        </mxCell>
        <mxCell id="z6qCDHoe-iHTmkbMnSen-4" value="" style="endArrow=none;html=1;rounded=0;" edge="1" parent="z6qCDHoe-iHTmkbMnSen-1" target="z6qCDHoe-iHTmkbMnSen-5">
          <mxGeometry width="50" height="50" relative="1" as="geometry">
            <mxPoint x="187.5" y="270" as="sourcePoint" />
            <mxPoint x="262.125" y="270" as="targetPoint" />
          </mxGeometry>
        </mxCell>
        <mxCell id="z6qCDHoe-iHTmkbMnSen-5" value="&lt;font style=&quot;font-size: 14px;&quot;&gt;&lt;b&gt;x&lt;/b&gt;&lt;/font&gt;" style="ellipse;whiteSpace=wrap;html=1;aspect=fixed;fillColor=#f8cecc;strokeColor=#b85450;strokeWidth=0;" vertex="1" parent="z6qCDHoe-iHTmkbMnSen-1">
          <mxGeometry x="172.5" y="110" width="30" height="30" as="geometry" />
        </mxCell>
        <mxCell id="z6qCDHoe-iHTmkbMnSen-6" value="" style="endArrow=none;html=1;rounded=0;entryX=0.281;entryY=0.452;entryDx=0;entryDy=0;entryPerimeter=0;endFill=0;" edge="1" parent="z6qCDHoe-iHTmkbMnSen-1" target="z6qCDHoe-iHTmkbMnSen-1">
          <mxGeometry width="50" height="50" relative="1" as="geometry">
            <mxPoint x="135.375" y="270" as="sourcePoint" />
            <mxPoint x="135" y="190" as="targetPoint" />
            <Array as="points">
              <mxPoint x="135" y="130" />
            </Array>
          </mxGeometry>
        </mxCell>
        <mxCell id="z6qCDHoe-iHTmkbMnSen-7" value="" style="endArrow=classic;html=1;rounded=0;" edge="1" parent="z6qCDHoe-iHTmkbMnSen-1">
          <mxGeometry width="50" height="50" relative="1" as="geometry">
            <mxPoint x="135" y="130" as="sourcePoint" />
            <mxPoint x="172.5" y="129.5" as="targetPoint" />
          </mxGeometry>
        </mxCell>
        <mxCell id="z6qCDHoe-iHTmkbMnSen-8" value="" style="endArrow=none;html=1;rounded=0;endFill=0;" edge="1" parent="z6qCDHoe-iHTmkbMnSen-1">
          <mxGeometry width="50" height="50" relative="1" as="geometry">
            <mxPoint x="270.375" y="270" as="sourcePoint" />
            <mxPoint x="270" y="180" as="targetPoint" />
            <Array as="points" />
          </mxGeometry>
        </mxCell>
        <mxCell id="z6qCDHoe-iHTmkbMnSen-9" value="" style="endArrow=none;html=1;rounded=0;endFill=0;entryX=0.75;entryY=0.323;entryDx=0;entryDy=0;entryPerimeter=0;" edge="1" parent="z6qCDHoe-iHTmkbMnSen-1" target="z6qCDHoe-iHTmkbMnSen-1">
          <mxGeometry width="50" height="50" relative="1" as="geometry">
            <mxPoint x="360.375" y="270" as="sourcePoint" />
            <mxPoint x="360" y="180" as="targetPoint" />
            <Array as="points" />
          </mxGeometry>
        </mxCell>
        <mxCell id="z6qCDHoe-iHTmkbMnSen-10" value="&lt;font style=&quot;font-size: 14px;&quot;&gt;tanh&lt;/font&gt;" style="ellipse;whiteSpace=wrap;html=1;fillColor=#fff2cc;strokeColor=#d6b656;strokeWidth=0;" vertex="1" parent="z6qCDHoe-iHTmkbMnSen-1">
          <mxGeometry x="330" y="60" width="60" height="40" as="geometry" />
        </mxCell>
        <mxCell id="z6qCDHoe-iHTmkbMnSen-11" value="" style="endArrow=none;html=1;curved=1;entryX=0;entryY=0.5;entryDx=0;entryDy=0;exitX=0.5;exitY=0;exitDx=0;exitDy=0;" edge="1" parent="z6qCDHoe-iHTmkbMnSen-1" source="z6qCDHoe-iHTmkbMnSen-19" target="z6qCDHoe-iHTmkbMnSen-12">
          <mxGeometry width="50" height="50" relative="1" as="geometry">
            <mxPoint x="270" y="180" as="sourcePoint" />
            <mxPoint x="360" y="140" as="targetPoint" />
            <Array as="points">
              <mxPoint x="300" y="140" />
            </Array>
          </mxGeometry>
        </mxCell>
        <mxCell id="z6qCDHoe-iHTmkbMnSen-12" value="&lt;font style=&quot;font-size: 14px;&quot;&gt;&lt;b&gt;x&lt;/b&gt;&lt;/font&gt;" style="ellipse;whiteSpace=wrap;html=1;aspect=fixed;fillColor=#f8cecc;strokeColor=#b85450;strokeWidth=0;" vertex="1" parent="z6qCDHoe-iHTmkbMnSen-1">
          <mxGeometry x="345" y="120" width="30" height="30" as="geometry" />
        </mxCell>
        <mxCell id="z6qCDHoe-iHTmkbMnSen-13" value="&lt;font style=&quot;font-size: 14px;&quot;&gt;&lt;b&gt;x&lt;/b&gt;&lt;/font&gt;" style="ellipse;whiteSpace=wrap;html=1;aspect=fixed;fillColor=#f8cecc;strokeColor=#b85450;strokeWidth=0;" vertex="1" parent="z6qCDHoe-iHTmkbMnSen-1">
          <mxGeometry x="60" y="20" width="43" height="40" as="geometry" />
        </mxCell>
        <mxCell id="z6qCDHoe-iHTmkbMnSen-14" value="&lt;font style=&quot;font-size: 14px;&quot;&gt;&lt;b&gt;+&lt;/b&gt;&lt;/font&gt;" style="ellipse;whiteSpace=wrap;html=1;aspect=fixed;fillColor=#f8cecc;strokeColor=#b85450;strokeWidth=0;" vertex="1" parent="z6qCDHoe-iHTmkbMnSen-1">
          <mxGeometry x="167.5" y="20" width="40" height="40" as="geometry" />
        </mxCell>
        <mxCell id="z6qCDHoe-iHTmkbMnSen-15" value="" style="endArrow=none;html=1;rounded=0;startArrow=none;" edge="1" parent="z6qCDHoe-iHTmkbMnSen-1" source="z6qCDHoe-iHTmkbMnSen-13" target="z6qCDHoe-iHTmkbMnSen-14">
          <mxGeometry width="50" height="50" relative="1" as="geometry">
            <mxPoint x="130" y="40" as="sourcePoint" />
            <mxPoint x="690" y="40" as="targetPoint" />
          </mxGeometry>
        </mxCell>
        <mxCell id="z6qCDHoe-iHTmkbMnSen-16" value="&lt;font style=&quot;font-size: 14px;&quot;&gt;&lt;b&gt;σ&lt;/b&gt;&lt;/font&gt;" style="rounded=0;whiteSpace=wrap;html=1;fillColor=#ffe6cc;strokeColor=#d79b00;strokeWidth=0;" vertex="1" parent="z6qCDHoe-iHTmkbMnSen-1">
          <mxGeometry x="120" y="170" width="30" height="20" as="geometry" />
        </mxCell>
        <mxCell id="z6qCDHoe-iHTmkbMnSen-17" value="&lt;font style=&quot;font-size: 14px;&quot;&gt;&lt;b&gt;σ&lt;/b&gt;&lt;/font&gt;" style="rounded=0;whiteSpace=wrap;html=1;fillColor=#ffe6cc;strokeColor=#d79b00;strokeWidth=0;" vertex="1" parent="z6qCDHoe-iHTmkbMnSen-1">
          <mxGeometry x="66.5" y="170" width="30" height="20" as="geometry" />
        </mxCell>
        <mxCell id="z6qCDHoe-iHTmkbMnSen-18" value="&lt;font style=&quot;font-size: 14px;&quot;&gt;tanh&lt;/font&gt;" style="rounded=0;whiteSpace=wrap;html=1;fillColor=#ffe6cc;strokeColor=#d79b00;strokeWidth=0;" vertex="1" parent="z6qCDHoe-iHTmkbMnSen-1">
          <mxGeometry x="173" y="170" width="30" height="20" as="geometry" />
        </mxCell>
        <mxCell id="z6qCDHoe-iHTmkbMnSen-19" value="&lt;font style=&quot;font-size: 14px;&quot;&gt;&lt;b&gt;σ&lt;/b&gt;&lt;/font&gt;" style="rounded=0;whiteSpace=wrap;html=1;fillColor=#ffe6cc;strokeColor=#d79b00;strokeWidth=0;" vertex="1" parent="z6qCDHoe-iHTmkbMnSen-1">
          <mxGeometry x="257" y="170" width="30" height="20" as="geometry" />
        </mxCell>
        <mxCell id="z6qCDHoe-iHTmkbMnSen-20" value="&lt;i&gt;&lt;font face=&quot;Times New Roman&quot; style=&quot;font-size: 18px;&quot;&gt;f&lt;sub&gt;t&lt;/sub&gt;&lt;/font&gt;&lt;/i&gt;" style="text;strokeColor=none;align=center;fillColor=none;html=1;verticalAlign=middle;whiteSpace=wrap;rounded=0;fontSize=14;" vertex="1" parent="z6qCDHoe-iHTmkbMnSen-1">
          <mxGeometry x="36.5" y="136" width="60" height="30" as="geometry" />
        </mxCell>
        <mxCell id="z6qCDHoe-iHTmkbMnSen-21" value="&lt;i&gt;&lt;font face=&quot;Times New Roman&quot; style=&quot;font-size: 18px;&quot;&gt;i&lt;sub&gt;t&lt;/sub&gt;&lt;/font&gt;&lt;/i&gt;" style="text;strokeColor=none;align=center;fillColor=none;html=1;verticalAlign=middle;whiteSpace=wrap;rounded=0;fontSize=14;" vertex="1" parent="z6qCDHoe-iHTmkbMnSen-1">
          <mxGeometry x="90" y="136" width="60" height="30" as="geometry" />
        </mxCell>
        <mxCell id="z6qCDHoe-iHTmkbMnSen-22" value="&lt;i&gt;&lt;font face=&quot;Times New Roman&quot; style=&quot;font-size: 18px;&quot;&gt;o&lt;sub&gt;t&lt;/sub&gt;&lt;/font&gt;&lt;/i&gt;" style="text;strokeColor=none;align=center;fillColor=none;html=1;verticalAlign=middle;whiteSpace=wrap;rounded=0;fontSize=14;" vertex="1" parent="z6qCDHoe-iHTmkbMnSen-1">
          <mxGeometry x="260" y="116" width="60" height="30" as="geometry" />
        </mxCell>
        <mxCell id="z6qCDHoe-iHTmkbMnSen-23" value="" style="endArrow=none;html=1;fontSize=18;curved=1;exitX=0.5;exitY=0;exitDx=0;exitDy=0;" edge="1" parent="z6qCDHoe-iHTmkbMnSen-1" source="z6qCDHoe-iHTmkbMnSen-10">
          <mxGeometry width="50" height="50" relative="1" as="geometry">
            <mxPoint x="350" y="60" as="sourcePoint" />
            <mxPoint x="360" y="40" as="targetPoint" />
          </mxGeometry>
        </mxCell>
        <mxCell id="z6qCDHoe-iHTmkbMnSen-24" value="&lt;i&gt;&lt;font face=&quot;Times New Roman&quot; style=&quot;font-size: 18px;&quot;&gt;c&#39;&lt;sub&gt;t&lt;/sub&gt;&lt;/font&gt;&lt;/i&gt;" style="text;strokeColor=none;align=center;fillColor=none;html=1;verticalAlign=middle;whiteSpace=wrap;rounded=0;fontSize=14;" vertex="1" parent="z6qCDHoe-iHTmkbMnSen-1">
          <mxGeometry x="181" y="136" width="60" height="30" as="geometry" />
        </mxCell>
        <mxCell id="z6qCDHoe-iHTmkbMnSen-39" value="" style="rounded=1;whiteSpace=wrap;html=1;fillColor=none;dashed=1;strokeColor=#006EAF;strokeWidth=2;fontColor=#ffffff;" vertex="1" parent="z6qCDHoe-iHTmkbMnSen-1">
          <mxGeometry x="50" y="110" width="53" height="130" as="geometry" />
        </mxCell>
        <mxCell id="z6qCDHoe-iHTmkbMnSen-40" value="" style="rounded=1;whiteSpace=wrap;html=1;fillColor=none;dashed=1;strokeColor=#006EAF;strokeWidth=2;fontColor=#ffffff;" vertex="1" parent="z6qCDHoe-iHTmkbMnSen-1">
          <mxGeometry x="110" y="110" width="120" height="130" as="geometry" />
        </mxCell>
        <mxCell id="z6qCDHoe-iHTmkbMnSen-38" value="" style="rounded=1;whiteSpace=wrap;html=1;fillColor=none;dashed=1;strokeColor=#006EAF;strokeWidth=2;fontColor=#ffffff;" vertex="1" parent="z6qCDHoe-iHTmkbMnSen-1">
          <mxGeometry x="250" y="50" width="150" height="190" as="geometry" />
        </mxCell>
        <mxCell id="z6qCDHoe-iHTmkbMnSen-41" value="&lt;font face=&quot;微软雅黑&quot; style=&quot;font-size: 13px;&quot;&gt;遗忘门&lt;/font&gt;" style="text;html=1;strokeColor=none;fillColor=none;align=center;verticalAlign=middle;whiteSpace=wrap;rounded=0;" vertex="1" parent="z6qCDHoe-iHTmkbMnSen-1">
          <mxGeometry x="19" y="80" width="60" height="30" as="geometry" />
        </mxCell>
        <mxCell id="z6qCDHoe-iHTmkbMnSen-42" value="&lt;font face=&quot;微软雅黑&quot; style=&quot;font-size: 13px;&quot;&gt;更新门&lt;/font&gt;" style="text;html=1;strokeColor=none;fillColor=none;align=center;verticalAlign=middle;whiteSpace=wrap;rounded=0;" vertex="1" parent="z6qCDHoe-iHTmkbMnSen-1">
          <mxGeometry x="129" y="80" width="60" height="30" as="geometry" />
        </mxCell>
        <mxCell id="z6qCDHoe-iHTmkbMnSen-43" value="&lt;font face=&quot;微软雅黑&quot; style=&quot;font-size: 13px;&quot;&gt;输出门&lt;/font&gt;" style="text;html=1;strokeColor=none;fillColor=none;align=center;verticalAlign=middle;whiteSpace=wrap;rounded=0;" vertex="1" parent="z6qCDHoe-iHTmkbMnSen-1">
          <mxGeometry x="400" y="60" width="60" height="30" as="geometry" />
        </mxCell>
        <mxCell id="z6qCDHoe-iHTmkbMnSen-25" value="" style="endArrow=classic;html=1;rounded=0;entryX=0;entryY=0.129;entryDx=0;entryDy=0;entryPerimeter=0;" edge="1" parent="1" target="z6qCDHoe-iHTmkbMnSen-1">
          <mxGeometry width="50" height="50" relative="1" as="geometry">
            <mxPoint x="51" y="420" as="sourcePoint" />
            <mxPoint x="81" y="420" as="targetPoint" />
          </mxGeometry>
        </mxCell>
        <mxCell id="z6qCDHoe-iHTmkbMnSen-26" value="" style="endArrow=classic;html=1;rounded=0;startArrow=none;" edge="1" parent="1" source="z6qCDHoe-iHTmkbMnSen-14">
          <mxGeometry width="50" height="50" relative="1" as="geometry">
            <mxPoint x="111" y="420" as="sourcePoint" />
            <mxPoint x="651" y="420" as="targetPoint" />
          </mxGeometry>
        </mxCell>
        <mxCell id="z6qCDHoe-iHTmkbMnSen-27" value="" style="endArrow=none;html=1;rounded=0;" edge="1" parent="1" target="z6qCDHoe-iHTmkbMnSen-13">
          <mxGeometry width="50" height="50" relative="1" as="geometry">
            <mxPoint x="111" y="420" as="sourcePoint" />
            <mxPoint x="801" y="420" as="targetPoint" />
          </mxGeometry>
        </mxCell>
        <mxCell id="z6qCDHoe-iHTmkbMnSen-28" value="" style="endArrow=classic;html=1;rounded=0;entryX=0;entryY=0.129;entryDx=0;entryDy=0;entryPerimeter=0;" edge="1" parent="1">
          <mxGeometry width="50" height="50" relative="1" as="geometry">
            <mxPoint x="51" y="650" as="sourcePoint" />
            <mxPoint x="111" y="650" as="targetPoint" />
          </mxGeometry>
        </mxCell>
        <mxCell id="z6qCDHoe-iHTmkbMnSen-29" value="" style="endArrow=none;html=1;rounded=0;endFill=0;" edge="1" parent="1">
          <mxGeometry width="50" height="50" relative="1" as="geometry">
            <mxPoint x="105" y="650" as="sourcePoint" />
            <mxPoint x="381" y="650" as="targetPoint" />
          </mxGeometry>
        </mxCell>
        <mxCell id="z6qCDHoe-iHTmkbMnSen-30" value="" style="endArrow=classic;html=1;rounded=0;exitX=0.813;exitY=0.871;exitDx=0;exitDy=0;exitPerimeter=0;" edge="1" parent="1" source="z6qCDHoe-iHTmkbMnSen-1">
          <mxGeometry width="50" height="50" relative="1" as="geometry">
            <mxPoint x="661" y="650" as="sourcePoint" />
            <mxPoint x="651" y="650" as="targetPoint" />
            <Array as="points">
              <mxPoint x="471" y="650" />
              <mxPoint x="561" y="650" />
              <mxPoint x="651" y="650" />
            </Array>
          </mxGeometry>
        </mxCell>
        <mxCell id="z6qCDHoe-iHTmkbMnSen-31" value="" style="endArrow=classic;html=1;rounded=0;startArrow=none;" edge="1" parent="1" source="z6qCDHoe-iHTmkbMnSen-37">
          <mxGeometry width="50" height="50" relative="1" as="geometry">
            <mxPoint x="171" y="740" as="sourcePoint" />
            <mxPoint x="171" y="650" as="targetPoint" />
          </mxGeometry>
        </mxCell>
        <mxCell id="z6qCDHoe-iHTmkbMnSen-32" value="&lt;font face=&quot;Times New Roman&quot; style=&quot;font-size: 16px;&quot;&gt;c&lt;sub style=&quot;&quot;&gt;t-1&lt;/sub&gt;&lt;/font&gt;" style="text;html=1;align=center;verticalAlign=middle;resizable=0;points=[];autosize=1;strokeColor=none;fillColor=none;" vertex="1" parent="1">
          <mxGeometry x="51" y="390" width="50" height="40" as="geometry" />
        </mxCell>
        <mxCell id="z6qCDHoe-iHTmkbMnSen-33" value="&lt;font face=&quot;Times New Roman&quot; style=&quot;font-size: 16px;&quot;&gt;c&lt;sub style=&quot;&quot;&gt;t&lt;/sub&gt;&lt;/font&gt;" style="text;html=1;align=center;verticalAlign=middle;resizable=0;points=[];autosize=1;strokeColor=none;fillColor=none;" vertex="1" parent="1">
          <mxGeometry x="606" y="390" width="30" height="40" as="geometry" />
        </mxCell>
        <mxCell id="z6qCDHoe-iHTmkbMnSen-34" value="&lt;font face=&quot;Times New Roman&quot; style=&quot;font-size: 16px;&quot;&gt;h&lt;sub style=&quot;&quot;&gt;t&lt;/sub&gt;&lt;/font&gt;" style="text;html=1;align=center;verticalAlign=middle;resizable=0;points=[];autosize=1;strokeColor=none;fillColor=none;" vertex="1" parent="1">
          <mxGeometry x="601" y="618" width="40" height="40" as="geometry" />
        </mxCell>
        <mxCell id="z6qCDHoe-iHTmkbMnSen-35" value="&lt;font face=&quot;Times New Roman&quot; style=&quot;font-size: 16px;&quot;&gt;h&lt;sub style=&quot;&quot;&gt;t-1&lt;/sub&gt;&lt;/font&gt;" style="text;html=1;align=center;verticalAlign=middle;resizable=0;points=[];autosize=1;strokeColor=none;fillColor=none;" vertex="1" parent="1">
          <mxGeometry x="50" y="618" width="50" height="40" as="geometry" />
        </mxCell>
        <mxCell id="z6qCDHoe-iHTmkbMnSen-36" value="" style="endArrow=none;html=1;rounded=0;" edge="1" parent="1" target="z6qCDHoe-iHTmkbMnSen-37">
          <mxGeometry width="50" height="50" relative="1" as="geometry">
            <mxPoint x="171" y="740" as="sourcePoint" />
            <mxPoint x="171" y="650" as="targetPoint" />
          </mxGeometry>
        </mxCell>
        <mxCell id="z6qCDHoe-iHTmkbMnSen-37" value="&lt;font face=&quot;Times New Roman&quot; style=&quot;font-size: 16px;&quot;&gt;x&lt;sub style=&quot;&quot;&gt;t&lt;/sub&gt;&lt;/font&gt;" style="ellipse;whiteSpace=wrap;html=1;aspect=fixed;fillColor=#f8cecc;strokeColor=#b85450;strokeWidth=0;" vertex="1" parent="1">
          <mxGeometry x="151" y="730" width="40" height="40" as="geometry" />
        </mxCell>
      </root>
    </mxGraphModel>
  </diagram>
</mxfile>
